<?xml version="1.0" encoding="UTF-8" standalone="no"?>
<svg
   xmlns:dc="http://purl.org/dc/elements/1.1/"
   xmlns:cc="http://creativecommons.org/ns#"
   xmlns:rdf="http://www.w3.org/1999/02/22-rdf-syntax-ns#"
   xmlns:svg="http://www.w3.org/2000/svg"
   xmlns="http://www.w3.org/2000/svg"
   xmlns:sodipodi="http://sodipodi.sourceforge.net/DTD/sodipodi-0.dtd"
   xmlns:inkscape="http://www.inkscape.org/namespaces/inkscape"
   width="3.83796in"
   height="5.9213in"
   viewBox="0 0 829 1279"
   version="1.1"
   id="svg863"
   sodipodi:docname="logo.svg"
   inkscape:version="0.92.3 (2405546, 2018-03-11)">
  <metadata
     id="metadata869">
    <rdf:RDF>
      <cc:Work
         rdf:about="">
        <dc:format>image/svg+xml</dc:format>
        <dc:type
           rdf:resource="http://purl.org/dc/dcmitype/StillImage" />
        <dc:title></dc:title>
      </cc:Work>
    </rdf:RDF>
  </metadata>
  <defs
     id="defs867" />
  <sodipodi:namedview
     pagecolor="#ff44ff"
     bordercolor="#666666"
     borderopacity="1"
     objecttolerance="10"
     gridtolerance="10"
     guidetolerance="10"
     inkscape:pageopacity="0"
     inkscape:pageshadow="2"
     inkscape:window-width="1366"
     inkscape:window-height="742"
     id="namedview865"
     showgrid="false"
     inkscape:zoom="1"
     inkscape:cx="184.22208"
     inkscape:cy="301.91738"
     inkscape:window-x="0"
     inkscape:window-y="0"
     inkscape:window-maximized="1"
     inkscape:current-layer="svg863" />
  <path
     d="m 248.82244,650.26758 c 0,0 -22.50002,2.1375 -22.50002,2.1375 0,0 -36.00003,0 -36.00003,0 -6.075,0.022 -14.06251,0.2925 -17.95501,-5.355 -3.17251,-4.6125 -4.72501,-22.3425 6.9525,-23.985 0,0 20.00252,0 20.00252,0 0,0 117.00009,0 117.00009,0 6.7725,0.18 23.96252,-2.61 28.55252,0 6.70501,4.545 5.26501,17.8875 5.19751,24.9525 -0.2475,21.3075 -5.37751,44.7751 -20.65502,60.5251 -16.40251,16.8975 -61.83005,26.955 -85.09507,27.225 0,0 -36.00003,1.53 -36.00003,1.53 -43.49253,-3.2625 -84.35256,-6.0075 -113.557586,-44.28 -11.4075,-14.9626 -14.46751,-39.9826 -14.69251,-58.5001 -0.3825,-32.9625 -1.575,-66.3525 3.57751,-99.0001 1.7775,-11.295 3.375,-26.01 8.5725,-36 12.825006,-24.6825 40.410026,-39.555 66.600046,-45.7875 11.67751,-2.7675 37.53003,-5.805 49.50004,-5.9625 35.88753,-0.405 91.32758,-3.195 119.2051,22.725 17.57251,16.335 20.11501,33.345 22.16252,56.025 0.945,10.485 -0.0225,23.0625 -13.14001,24.3225 -9.85501,0.9675 -14.22002,-4.2525 -16.44752,-13.1175 -3.645,-14.58 0.2925,-31.2975 -15.27751,-46.98 -21.30752,-21.4875 -61.78505,-18.27 -89.75257,-18.225 -28.62002,0.045 -61.38005,4.23 -82.57507,25.425 -17.59501,17.5725 -20.22751,34.515 -23.46751,57.825 -5.42251,38.9926 -9.607506,92.2276 18.69751,123.7276 26.30252,29.2726 71.14506,29.7001 107.59509,29.2726 39.30753,-0.4725 79.49256,-13.7025 83.25006,-58.5001 0,0 -69.75005,0 -69.75005,0 z m 155.25012,-177.7501 c 0,0 -2.25,42.75 -2.25,42.75 0,0 0,96.7501 0,96.7501 0,0 -2.25,51.75 -2.25,51.75 0.0225,20.3175 4.8375,61.8301 35.95502,42.7276 3.89251,-2.3625 7.15501,-5.4 9.83251,-9.0675 8.95501,-12.2851 8.01001,-41.0176 8.21251,-56.1601 0.09,-5.67 -0.045,-12.4425 3.915,-17.0325 5.49001,-6.345 15.21002,-5.5125 19.37252,1.845 5.13,9.1125 3.69,35.4375 3.7125,46.6875 0.022,9.27 -0.2925,18.6301 4.7025,26.9101 10.755,17.865 29.8575,15.1875 41.58,0 7.0425,-9.135 7.695,-31.1176 7.425,-42.6601 0,0 0,-162.0001 0,-162.0001 0.27,-8.955 -3.15,-31.905 0,-37.9575 3.105,-8.7975 18.9901,-13.9275 23.1076,2.0025 3.1725,8.415 -0.2925,48.465 0,60.705 0,0 0,130.5001 0,130.5001 0,0 -2.565,33.75 -2.565,33.75 -0.1125,9.7876 0.855,20.1376 -3.5325,29.2501 -9.1126,18.8775 -39.9826,27.4275 -59.4676,24.0075 -16.02,-2.79 -21.96001,-12.42 -29.25001,-13.095 -8.01001,-0.765 -15.30002,9.3375 -33.75003,12.3075 -7.98751,1.98 -14.67001,1.4625 -22.50002,0 -26.34752,-7.1325 -29.20502,-26.3925 -29.25002,-50.2201 0,0 0,-175.5001 0,-175.5001 0,-11.745 -1.575,-49.14 4.5225,-57.5325 2.2725,-3.15 2.8125,-2.385 4.79251,-3.7125 18.47251,-3.1725 17.66251,8.9775 17.68501,22.995 z m 272.25026,-23.265 c 23.26502,8.3025 31.72502,39.735 35.37002,61.515 0,0 5.13,58.5001 5.13,58.5001 0.045,34.8075 -0.7425,86.3325 -10.62,119.2501 -5.13,17.055 -13.1175,35.0775 -29.88002,43.4475 -9.7651,4.905 -22.9501,3.915 -33.7501,3.8025 -43.56,-0.54 -49.905,-36.9225 -54.945,-72.0001 0,0 -1.5075,-22.5 -1.5075,-22.5 0,0 -2.0475,-27 -2.0475,-27 -0.045,-34.83 1.35,-69.5476 9.8325,-103.5001 7.56,-30.105 21.06,-54.315 53.1675,-61.515 8.91,-1.6875 20.6325,-2.475 29.2501,0 z m -59.3101,68.265 c -9.855,36.495 -10.5075,77.0851 -10.44,114.7501 0.023,19.845 7.38,63.3826 24.84,74.8351 6.165,4.05 15.2775,4.545 22.41,3.4425 21.5551,-3.3525 28.37262,-26.3026 32.91762,-44.5276 10.98,-44.1 12.06,-97.1325 3.96,-141.7501 -3.8925,-21.3975 -9.72,-51.3225 -36.87762,-50.9175 -22.905,5.31 -31.1625,23.265 -36.81,44.1675 z"
     id="Seleção"
     inkscape:connector-curvature="0"
     style="fill:#ffffff;stroke:none;stroke-width:2.25000167"
     inkscape:export-filename="/var/www/html/freelas/gwo/includes/img/logo.png"
     inkscape:export-xdpi="90"
     inkscape:export-ydpi="90" />
</svg>
